<mxfile host="app.diagrams.net" modified="2021-04-26T12:44:46.461Z" agent="5.0 (Windows NT 10.0; Win64; x64) AppleWebKit/537.36 (KHTML, like Gecko) Chrome/90.0.4430.85 Safari/537.36" etag="vr_Jt537ZyC6qDZY-024" version="14.6.6" type="github">
  <diagram id="QNNSifqvYXRWt1FFbJqh" name="Page-1">
    <mxGraphModel dx="2249" dy="1963" grid="1" gridSize="10" guides="1" tooltips="1" connect="1" arrows="1" fold="1" page="1" pageScale="1" pageWidth="827" pageHeight="1169" math="0" shadow="0">
      <root>
        <mxCell id="0" />
        <mxCell id="1" parent="0" />
        <mxCell id="DBC-yAZN_JN4MeXVIZoR-1" value="Matsedel" style="rounded=0;whiteSpace=wrap;html=1;" parent="1" vertex="1">
          <mxGeometry x="370" y="190" width="120" height="50" as="geometry" />
        </mxCell>
        <mxCell id="DBC-yAZN_JN4MeXVIZoR-3" value="Matr채tt" style="rounded=0;whiteSpace=wrap;html=1;" parent="1" vertex="1">
          <mxGeometry x="670" y="190" width="120" height="50" as="geometry" />
        </mxCell>
        <mxCell id="DBC-yAZN_JN4MeXVIZoR-4" value="Matspecifikation" style="rounded=0;whiteSpace=wrap;html=1;" parent="1" vertex="1">
          <mxGeometry x="670" y="390" width="120" height="50" as="geometry" />
        </mxCell>
        <mxCell id="DBC-yAZN_JN4MeXVIZoR-5" value="Skola" style="rounded=0;whiteSpace=wrap;html=1;" parent="1" vertex="1">
          <mxGeometry x="370" width="120" height="50" as="geometry" />
        </mxCell>
        <mxCell id="DBC-yAZN_JN4MeXVIZoR-6" value="Kommun" style="rounded=0;whiteSpace=wrap;html=1;" parent="1" vertex="1">
          <mxGeometry x="370" y="-190" width="120" height="50" as="geometry" />
        </mxCell>
        <mxCell id="DBC-yAZN_JN4MeXVIZoR-7" value="Anv채ndare" style="rounded=0;whiteSpace=wrap;html=1;" parent="1" vertex="1">
          <mxGeometry x="50" y="190" width="120" height="50" as="geometry" />
        </mxCell>
        <mxCell id="DBC-yAZN_JN4MeXVIZoR-8" value="Inneh책ller" style="rhombus;whiteSpace=wrap;html=1;" parent="1" vertex="1">
          <mxGeometry x="540" y="175" width="80" height="80" as="geometry" />
        </mxCell>
        <mxCell id="DBC-yAZN_JN4MeXVIZoR-9" value="1" style="endArrow=none;html=1;exitX=0;exitY=0.5;exitDx=0;exitDy=0;entryX=1;entryY=0.5;entryDx=0;entryDy=0;" parent="1" source="DBC-yAZN_JN4MeXVIZoR-8" target="DBC-yAZN_JN4MeXVIZoR-1" edge="1">
          <mxGeometry width="50" height="50" relative="1" as="geometry">
            <mxPoint x="400" y="270" as="sourcePoint" />
            <mxPoint x="450" y="220" as="targetPoint" />
          </mxGeometry>
        </mxCell>
        <mxCell id="DBC-yAZN_JN4MeXVIZoR-10" value="M" style="endArrow=none;html=1;exitX=1;exitY=0.5;exitDx=0;exitDy=0;entryX=0;entryY=0.5;entryDx=0;entryDy=0;" parent="1" source="DBC-yAZN_JN4MeXVIZoR-8" target="DBC-yAZN_JN4MeXVIZoR-3" edge="1">
          <mxGeometry width="50" height="50" relative="1" as="geometry">
            <mxPoint x="400" y="270" as="sourcePoint" />
            <mxPoint x="450" y="220" as="targetPoint" />
          </mxGeometry>
        </mxCell>
        <mxCell id="DBC-yAZN_JN4MeXVIZoR-15" value="Har" style="rhombus;whiteSpace=wrap;html=1;" parent="1" vertex="1">
          <mxGeometry x="390" y="80" width="80" height="80" as="geometry" />
        </mxCell>
        <mxCell id="DBC-yAZN_JN4MeXVIZoR-20" value="1" style="endArrow=none;html=1;exitX=0.5;exitY=1;exitDx=0;exitDy=0;entryX=0.5;entryY=0;entryDx=0;entryDy=0;" parent="1" source="DBC-yAZN_JN4MeXVIZoR-15" target="DBC-yAZN_JN4MeXVIZoR-1" edge="1">
          <mxGeometry width="50" height="50" relative="1" as="geometry">
            <mxPoint x="400" y="410" as="sourcePoint" />
            <mxPoint x="426" y="242" as="targetPoint" />
          </mxGeometry>
        </mxCell>
        <mxCell id="DBC-yAZN_JN4MeXVIZoR-24" value="Inneh책ller" style="rhombus;whiteSpace=wrap;html=1;" parent="1" vertex="1">
          <mxGeometry x="390" y="-110" width="80" height="80" as="geometry" />
        </mxCell>
        <mxCell id="DBC-yAZN_JN4MeXVIZoR-25" value="1" style="endArrow=none;html=1;" parent="1" target="DBC-yAZN_JN4MeXVIZoR-6" edge="1">
          <mxGeometry width="50" height="50" relative="1" as="geometry">
            <mxPoint x="430" y="-110" as="sourcePoint" />
            <mxPoint x="430" y="590" as="targetPoint" />
          </mxGeometry>
        </mxCell>
        <mxCell id="DBC-yAZN_JN4MeXVIZoR-26" value="M" style="endArrow=none;html=1;exitX=0.5;exitY=0;exitDx=0;exitDy=0;" parent="1" source="DBC-yAZN_JN4MeXVIZoR-5" edge="1">
          <mxGeometry width="50" height="50" relative="1" as="geometry">
            <mxPoint x="400" y="650" as="sourcePoint" />
            <mxPoint x="430" y="-30" as="targetPoint" />
          </mxGeometry>
        </mxCell>
        <mxCell id="DBC-yAZN_JN4MeXVIZoR-27" value="Administrerar" style="rhombus;whiteSpace=wrap;html=1;" parent="1" vertex="1">
          <mxGeometry x="230" y="175" width="80" height="80" as="geometry" />
        </mxCell>
        <mxCell id="DBC-yAZN_JN4MeXVIZoR-30" value="M" style="endArrow=none;html=1;exitX=1;exitY=0.5;exitDx=0;exitDy=0;entryX=0;entryY=0.5;entryDx=0;entryDy=0;" parent="1" source="DBC-yAZN_JN4MeXVIZoR-7" target="DBC-yAZN_JN4MeXVIZoR-27" edge="1">
          <mxGeometry width="50" height="50" relative="1" as="geometry">
            <mxPoint x="400" y="320" as="sourcePoint" />
            <mxPoint x="450" y="270" as="targetPoint" />
          </mxGeometry>
        </mxCell>
        <mxCell id="DBC-yAZN_JN4MeXVIZoR-31" value="N" style="endArrow=none;html=1;entryX=0;entryY=0.5;entryDx=0;entryDy=0;exitX=1;exitY=0.5;exitDx=0;exitDy=0;" parent="1" source="DBC-yAZN_JN4MeXVIZoR-27" target="DBC-yAZN_JN4MeXVIZoR-1" edge="1">
          <mxGeometry width="50" height="50" relative="1" as="geometry">
            <mxPoint x="400" y="330" as="sourcePoint" />
            <mxPoint x="450" y="280" as="targetPoint" />
          </mxGeometry>
        </mxCell>
        <mxCell id="DBC-yAZN_JN4MeXVIZoR-33" value="Har" style="rhombus;whiteSpace=wrap;html=1;" parent="1" vertex="1">
          <mxGeometry x="690" y="270" width="80" height="80" as="geometry" />
        </mxCell>
        <mxCell id="DBC-yAZN_JN4MeXVIZoR-35" value="1" style="endArrow=none;html=1;exitX=0.5;exitY=0;exitDx=0;exitDy=0;entryX=0.5;entryY=1;entryDx=0;entryDy=0;" parent="1" source="DBC-yAZN_JN4MeXVIZoR-33" edge="1">
          <mxGeometry width="50" height="50" relative="1" as="geometry">
            <mxPoint x="700" y="410" as="sourcePoint" />
            <mxPoint x="730" y="240" as="targetPoint" />
          </mxGeometry>
        </mxCell>
        <mxCell id="DBC-yAZN_JN4MeXVIZoR-39" value="M" style="endArrow=none;html=1;exitX=0.5;exitY=0;exitDx=0;exitDy=0;entryX=0.5;entryY=1;entryDx=0;entryDy=0;" parent="1" source="DBC-yAZN_JN4MeXVIZoR-15" target="DBC-yAZN_JN4MeXVIZoR-5" edge="1">
          <mxGeometry width="50" height="50" relative="1" as="geometry">
            <mxPoint x="440" y="20" as="sourcePoint" />
            <mxPoint x="440" y="-20" as="targetPoint" />
          </mxGeometry>
        </mxCell>
        <mxCell id="DBC-yAZN_JN4MeXVIZoR-40" value="&lt;u&gt;Id&lt;/u&gt;" style="ellipse;whiteSpace=wrap;html=1;" parent="1" vertex="1">
          <mxGeometry x="220" y="-210" width="80" height="40" as="geometry" />
        </mxCell>
        <mxCell id="DBC-yAZN_JN4MeXVIZoR-41" value="" style="endArrow=none;html=1;entryX=1;entryY=0.5;entryDx=0;entryDy=0;exitX=0;exitY=0.5;exitDx=0;exitDy=0;" parent="1" source="DBC-yAZN_JN4MeXVIZoR-6" target="DBC-yAZN_JN4MeXVIZoR-40" edge="1">
          <mxGeometry width="50" height="50" relative="1" as="geometry">
            <mxPoint x="390" y="150" as="sourcePoint" />
            <mxPoint x="440" y="100" as="targetPoint" />
          </mxGeometry>
        </mxCell>
        <mxCell id="DBC-yAZN_JN4MeXVIZoR-42" value="Namn" style="ellipse;whiteSpace=wrap;html=1;" parent="1" vertex="1">
          <mxGeometry x="220" y="-150" width="80" height="40" as="geometry" />
        </mxCell>
        <mxCell id="DBC-yAZN_JN4MeXVIZoR-43" value="" style="endArrow=none;html=1;entryX=0;entryY=0.5;entryDx=0;entryDy=0;exitX=1;exitY=0.5;exitDx=0;exitDy=0;" parent="1" source="DBC-yAZN_JN4MeXVIZoR-42" target="DBC-yAZN_JN4MeXVIZoR-6" edge="1">
          <mxGeometry width="50" height="50" relative="1" as="geometry">
            <mxPoint x="500" y="-155.00000000000023" as="sourcePoint" />
            <mxPoint x="560" y="-155.00000000000023" as="targetPoint" />
          </mxGeometry>
        </mxCell>
        <mxCell id="DBC-yAZN_JN4MeXVIZoR-44" value="&lt;u&gt;Id&lt;/u&gt;" style="ellipse;whiteSpace=wrap;html=1;" parent="1" vertex="1">
          <mxGeometry x="220" y="-30" width="80" height="40" as="geometry" />
        </mxCell>
        <mxCell id="DBC-yAZN_JN4MeXVIZoR-45" value="" style="endArrow=none;html=1;entryX=1;entryY=0.5;entryDx=0;entryDy=0;" parent="1" target="DBC-yAZN_JN4MeXVIZoR-44" edge="1">
          <mxGeometry width="50" height="50" relative="1" as="geometry">
            <mxPoint x="370" y="25" as="sourcePoint" />
            <mxPoint x="440" y="290" as="targetPoint" />
          </mxGeometry>
        </mxCell>
        <mxCell id="DBC-yAZN_JN4MeXVIZoR-46" value="Namn" style="ellipse;whiteSpace=wrap;html=1;" parent="1" vertex="1">
          <mxGeometry x="220" y="30" width="80" height="40" as="geometry" />
        </mxCell>
        <mxCell id="DBC-yAZN_JN4MeXVIZoR-47" value="" style="endArrow=none;html=1;entryX=0;entryY=0.5;entryDx=0;entryDy=0;exitX=1;exitY=0.5;exitDx=0;exitDy=0;" parent="1" source="DBC-yAZN_JN4MeXVIZoR-46" edge="1">
          <mxGeometry width="50" height="50" relative="1" as="geometry">
            <mxPoint x="500" y="34.99999999999977" as="sourcePoint" />
            <mxPoint x="370" y="24.999999999999773" as="targetPoint" />
          </mxGeometry>
        </mxCell>
        <mxCell id="DBC-yAZN_JN4MeXVIZoR-48" value="&lt;u&gt;Id&lt;/u&gt;" style="ellipse;whiteSpace=wrap;html=1;" parent="1" vertex="1">
          <mxGeometry x="-110" y="100" width="80" height="40" as="geometry" />
        </mxCell>
        <mxCell id="DBC-yAZN_JN4MeXVIZoR-49" value="F철rnamn" style="ellipse;whiteSpace=wrap;html=1;" parent="1" vertex="1">
          <mxGeometry x="-110" y="166" width="80" height="40" as="geometry" />
        </mxCell>
        <mxCell id="DBC-yAZN_JN4MeXVIZoR-50" value="Efternamn" style="ellipse;whiteSpace=wrap;html=1;" parent="1" vertex="1">
          <mxGeometry x="-110" y="230" width="80" height="40" as="geometry" />
        </mxCell>
        <mxCell id="DBC-yAZN_JN4MeXVIZoR-51" value="Email" style="ellipse;whiteSpace=wrap;html=1;" parent="1" vertex="1">
          <mxGeometry x="-110" y="300" width="80" height="40" as="geometry" />
        </mxCell>
        <mxCell id="DBC-yAZN_JN4MeXVIZoR-52" value="L철senord" style="ellipse;whiteSpace=wrap;html=1;" parent="1" vertex="1">
          <mxGeometry x="-110" y="370" width="80" height="40" as="geometry" />
        </mxCell>
        <mxCell id="DBC-yAZN_JN4MeXVIZoR-53" value="" style="endArrow=none;html=1;exitX=1;exitY=0.5;exitDx=0;exitDy=0;entryX=0;entryY=0.5;entryDx=0;entryDy=0;" parent="1" source="DBC-yAZN_JN4MeXVIZoR-48" target="DBC-yAZN_JN4MeXVIZoR-7" edge="1">
          <mxGeometry width="50" height="50" relative="1" as="geometry">
            <mxPoint x="390" y="300" as="sourcePoint" />
            <mxPoint x="440" y="250" as="targetPoint" />
          </mxGeometry>
        </mxCell>
        <mxCell id="DBC-yAZN_JN4MeXVIZoR-54" value="" style="endArrow=none;html=1;exitX=1;exitY=0.5;exitDx=0;exitDy=0;entryX=0;entryY=0.5;entryDx=0;entryDy=0;" parent="1" source="DBC-yAZN_JN4MeXVIZoR-49" target="DBC-yAZN_JN4MeXVIZoR-7" edge="1">
          <mxGeometry width="50" height="50" relative="1" as="geometry">
            <mxPoint x="390" y="300" as="sourcePoint" />
            <mxPoint x="440" y="250" as="targetPoint" />
          </mxGeometry>
        </mxCell>
        <mxCell id="DBC-yAZN_JN4MeXVIZoR-55" value="" style="endArrow=none;html=1;exitX=1;exitY=0.5;exitDx=0;exitDy=0;entryX=0;entryY=0.5;entryDx=0;entryDy=0;" parent="1" source="DBC-yAZN_JN4MeXVIZoR-50" target="DBC-yAZN_JN4MeXVIZoR-7" edge="1">
          <mxGeometry width="50" height="50" relative="1" as="geometry">
            <mxPoint x="390" y="300" as="sourcePoint" />
            <mxPoint x="440" y="250" as="targetPoint" />
          </mxGeometry>
        </mxCell>
        <mxCell id="DBC-yAZN_JN4MeXVIZoR-56" value="" style="endArrow=none;html=1;exitX=1;exitY=0.5;exitDx=0;exitDy=0;entryX=0;entryY=0.5;entryDx=0;entryDy=0;" parent="1" source="DBC-yAZN_JN4MeXVIZoR-51" target="DBC-yAZN_JN4MeXVIZoR-7" edge="1">
          <mxGeometry width="50" height="50" relative="1" as="geometry">
            <mxPoint x="390" y="300" as="sourcePoint" />
            <mxPoint x="50" y="220" as="targetPoint" />
          </mxGeometry>
        </mxCell>
        <mxCell id="DBC-yAZN_JN4MeXVIZoR-57" value="" style="endArrow=none;html=1;exitX=1;exitY=0.5;exitDx=0;exitDy=0;entryX=0;entryY=0.5;entryDx=0;entryDy=0;" parent="1" source="DBC-yAZN_JN4MeXVIZoR-52" target="DBC-yAZN_JN4MeXVIZoR-7" edge="1">
          <mxGeometry width="50" height="50" relative="1" as="geometry">
            <mxPoint x="390" y="300" as="sourcePoint" />
            <mxPoint x="440" y="250" as="targetPoint" />
          </mxGeometry>
        </mxCell>
        <mxCell id="DBC-yAZN_JN4MeXVIZoR-58" value="&lt;u&gt;Id&lt;/u&gt;" style="ellipse;whiteSpace=wrap;html=1;" parent="1" vertex="1">
          <mxGeometry x="290" y="290" width="80" height="40" as="geometry" />
        </mxCell>
        <mxCell id="DBC-yAZN_JN4MeXVIZoR-59" value="" style="endArrow=none;html=1;exitX=0.5;exitY=0;exitDx=0;exitDy=0;entryX=0.5;entryY=1;entryDx=0;entryDy=0;" parent="1" source="DBC-yAZN_JN4MeXVIZoR-58" target="DBC-yAZN_JN4MeXVIZoR-1" edge="1">
          <mxGeometry width="50" height="50" relative="1" as="geometry">
            <mxPoint x="370" y="300" as="sourcePoint" />
            <mxPoint x="420" y="250" as="targetPoint" />
          </mxGeometry>
        </mxCell>
        <mxCell id="DBC-yAZN_JN4MeXVIZoR-60" value="Startdatum" style="ellipse;whiteSpace=wrap;html=1;" parent="1" vertex="1">
          <mxGeometry x="390" y="290" width="80" height="40" as="geometry" />
        </mxCell>
        <mxCell id="DBC-yAZN_JN4MeXVIZoR-61" value="Slutdatum" style="ellipse;whiteSpace=wrap;html=1;" parent="1" vertex="1">
          <mxGeometry x="490" y="290" width="80" height="40" as="geometry" />
        </mxCell>
        <mxCell id="DBC-yAZN_JN4MeXVIZoR-62" value="" style="endArrow=none;html=1;exitX=0.5;exitY=0;exitDx=0;exitDy=0;entryX=0.5;entryY=1;entryDx=0;entryDy=0;" parent="1" source="DBC-yAZN_JN4MeXVIZoR-60" target="DBC-yAZN_JN4MeXVIZoR-1" edge="1">
          <mxGeometry width="50" height="50" relative="1" as="geometry">
            <mxPoint x="370" y="300" as="sourcePoint" />
            <mxPoint x="420" y="250" as="targetPoint" />
          </mxGeometry>
        </mxCell>
        <mxCell id="DBC-yAZN_JN4MeXVIZoR-63" value="" style="endArrow=none;html=1;exitX=0.5;exitY=0;exitDx=0;exitDy=0;entryX=0.5;entryY=1;entryDx=0;entryDy=0;" parent="1" source="DBC-yAZN_JN4MeXVIZoR-61" target="DBC-yAZN_JN4MeXVIZoR-1" edge="1">
          <mxGeometry width="50" height="50" relative="1" as="geometry">
            <mxPoint x="370" y="300" as="sourcePoint" />
            <mxPoint x="420" y="250" as="targetPoint" />
          </mxGeometry>
        </mxCell>
        <mxCell id="DBC-yAZN_JN4MeXVIZoR-64" value="&lt;u&gt;Id&lt;/u&gt;" style="ellipse;whiteSpace=wrap;html=1;" parent="1" vertex="1">
          <mxGeometry x="850" y="140" width="80" height="40" as="geometry" />
        </mxCell>
        <mxCell id="DBC-yAZN_JN4MeXVIZoR-65" value="Datum" style="ellipse;whiteSpace=wrap;html=1;" parent="1" vertex="1">
          <mxGeometry x="850" y="195" width="80" height="40" as="geometry" />
        </mxCell>
        <mxCell id="DBC-yAZN_JN4MeXVIZoR-66" value="Namn" style="ellipse;whiteSpace=wrap;html=1;" parent="1" vertex="1">
          <mxGeometry x="850" y="255" width="80" height="40" as="geometry" />
        </mxCell>
        <mxCell id="DBC-yAZN_JN4MeXVIZoR-67" value="" style="endArrow=none;html=1;exitX=1;exitY=0.5;exitDx=0;exitDy=0;entryX=0;entryY=0.5;entryDx=0;entryDy=0;" parent="1" source="DBC-yAZN_JN4MeXVIZoR-3" target="DBC-yAZN_JN4MeXVIZoR-65" edge="1">
          <mxGeometry width="50" height="50" relative="1" as="geometry">
            <mxPoint x="500" y="300" as="sourcePoint" />
            <mxPoint x="840" y="250" as="targetPoint" />
          </mxGeometry>
        </mxCell>
        <mxCell id="DBC-yAZN_JN4MeXVIZoR-68" value="" style="endArrow=none;html=1;entryX=0;entryY=0.5;entryDx=0;entryDy=0;exitX=1;exitY=0.5;exitDx=0;exitDy=0;" parent="1" source="DBC-yAZN_JN4MeXVIZoR-3" target="DBC-yAZN_JN4MeXVIZoR-64" edge="1">
          <mxGeometry width="50" height="50" relative="1" as="geometry">
            <mxPoint x="500" y="300" as="sourcePoint" />
            <mxPoint x="550" y="250" as="targetPoint" />
          </mxGeometry>
        </mxCell>
        <mxCell id="DBC-yAZN_JN4MeXVIZoR-69" value="" style="endArrow=none;html=1;entryX=0;entryY=0.5;entryDx=0;entryDy=0;exitX=1;exitY=0.5;exitDx=0;exitDy=0;" parent="1" source="DBC-yAZN_JN4MeXVIZoR-3" target="DBC-yAZN_JN4MeXVIZoR-66" edge="1">
          <mxGeometry width="50" height="50" relative="1" as="geometry">
            <mxPoint x="500" y="300" as="sourcePoint" />
            <mxPoint x="550" y="250" as="targetPoint" />
          </mxGeometry>
        </mxCell>
        <mxCell id="DBC-yAZN_JN4MeXVIZoR-70" value="&lt;u&gt;Id&lt;/u&gt;" style="ellipse;whiteSpace=wrap;html=1;" parent="1" vertex="1">
          <mxGeometry x="850" y="370" width="80" height="40" as="geometry" />
        </mxCell>
        <mxCell id="DBC-yAZN_JN4MeXVIZoR-71" value="Typ" style="ellipse;whiteSpace=wrap;html=1;" parent="1" vertex="1">
          <mxGeometry x="850" y="420" width="80" height="40" as="geometry" />
        </mxCell>
        <mxCell id="DBC-yAZN_JN4MeXVIZoR-72" value="" style="endArrow=none;html=1;entryX=0;entryY=0.5;entryDx=0;entryDy=0;exitX=1;exitY=0.5;exitDx=0;exitDy=0;" parent="1" source="DBC-yAZN_JN4MeXVIZoR-4" target="DBC-yAZN_JN4MeXVIZoR-70" edge="1">
          <mxGeometry width="50" height="50" relative="1" as="geometry">
            <mxPoint x="560" y="400" as="sourcePoint" />
            <mxPoint x="610" y="350" as="targetPoint" />
          </mxGeometry>
        </mxCell>
        <mxCell id="DBC-yAZN_JN4MeXVIZoR-73" value="" style="endArrow=none;html=1;entryX=0;entryY=0.5;entryDx=0;entryDy=0;exitX=1;exitY=0.5;exitDx=0;exitDy=0;" parent="1" source="DBC-yAZN_JN4MeXVIZoR-4" target="DBC-yAZN_JN4MeXVIZoR-71" edge="1">
          <mxGeometry width="50" height="50" relative="1" as="geometry">
            <mxPoint x="560" y="400" as="sourcePoint" />
            <mxPoint x="610" y="350" as="targetPoint" />
          </mxGeometry>
        </mxCell>
        <mxCell id="DBC-yAZN_JN4MeXVIZoR-76" value="0.M" style="endArrow=none;html=1;entryX=0.5;entryY=1;entryDx=0;entryDy=0;exitX=0.5;exitY=0;exitDx=0;exitDy=0;" parent="1" source="DBC-yAZN_JN4MeXVIZoR-4" target="DBC-yAZN_JN4MeXVIZoR-33" edge="1">
          <mxGeometry width="50" height="50" relative="1" as="geometry">
            <mxPoint x="390" y="160" as="sourcePoint" />
            <mxPoint x="440" y="110" as="targetPoint" />
          </mxGeometry>
        </mxCell>
      </root>
    </mxGraphModel>
  </diagram>
</mxfile>
